# xmcd
#
# Track frame offsets: 
#        150
#        14174
#        27715
#        42874
#        61264
#        76734
#        91406
#        109630
#        128092
#        144058
#        157572
#        175041
#
# Disc length: 2498 seconds
#
# Revision: 0
# Processed by: cddbd v1.5.2PL0 Copyright (c) Steve Scherf et al.
# Submitted via: ExactAudioCopy v0.99pb4
#
DISCID=8809c00c
DTITLE=New York Dolls - 'Cause I Sez So
DYEAR=2009
DGENRE=Rock
TTITLE0='Cause I Sez So
TTITLE1=Muddy Bones
TTITLE2=Better Than You
TTITLE3=Lonely So Long
TTITLE4=My World
TTITLE5=This is Rediculous
TTITLE6=Temptation to Exist
TTITLE7=Making Rain
TTITLE8=Drowning
TTITLE9=Nobody Got No Bizness
TTITLE10=Trash
TTITLE11=Exorcism of Despair
EXTD=
EXTT0=
EXTT1=
EXTT2=
EXTT3=
EXTT4=
EXTT5=
EXTT6=
EXTT7=
EXTT8=
EXTT9=
EXTT10=
EXTT11=
PLAYORDER=
